<?xml version="1.0" standalone="no"?>
<!DOCTYPE svg PUBLIC "-//W3C//DTD SVG 20010904//EN"
 "http://www.w3.org/TR/2001/REC-SVG-20010904/DTD/svg10.dtd">
<svg version="1.0" xmlns="http://www.w3.org/2000/svg"
 width="382.000000pt" height="382.000000pt" viewBox="0 0 382.000000 382.000000"
 preserveAspectRatio="xMidYMid meet">
<metadata>
Created by potrace 1.14, written by Peter Selinger 2001-2017
</metadata>
<g transform="translate(0.000000,382.000000) scale(0.100000,-0.100000)"
fill="#000000" stroke="none">
<path d="M1350 3134 c-113 -20 -246 -74 -305 -124 -29 -25 -71 -59 -93 -77
-22 -18 -50 -54 -63 -80 -22 -45 -24 -60 -24 -218 0 -164 1 -174 34 -280 38
-126 41 -132 52 -114 6 10 11 6 18 -14 6 -16 11 -36 11 -46 0 -71 65 -237 165
-420 29 -52 29 -54 11 -65 -73 -43 -111 -76 -129 -111 -11 -22 -27 -53 -36
-70 -8 -16 -19 -38 -25 -47 -8 -13 -7 -23 2 -38 7 -11 8 -20 3 -20 -16 0 -91
-109 -91 -133 0 -12 -5 -28 -11 -34 -7 -7 -15 -81 -20 -180 -5 -92 -13 -233
-18 -313 -4 -80 -6 -148 -4 -152 2 -5 211 -8 464 -8 l460 0 -6 78 c-10 118
-35 345 -41 365 -3 9 -9 17 -14 17 -15 0 -33 71 -35 142 -2 51 -10 82 -29 118
-28 53 -32 70 -16 70 5 0 19 -20 31 -45 29 -62 39 -64 39 -8 0 26 5 55 10 63
12 19 12 20 14 -69 2 -53 7 -77 18 -85 20 -15 37 -103 36 -181 -1 -33 5 -114
14 -180 9 -66 20 -157 23 -203 l7 -82 204 0 204 0 0 58 c0 66 -26 349 -40 437
-16 96 -13 139 11 161 14 12 24 15 33 9 43 -31 161 -132 225 -191 90 -85 205
-172 249 -191 89 -37 195 -34 253 8 77 54 118 183 100 314 -6 44 -13 134 -17
200 -7 134 -37 363 -55 425 -7 22 -27 57 -44 78 -26 31 -33 48 -38 102 -10
108 -1 102 -146 95 -69 -4 -132 -8 -138 -10 -9 -3 -13 -30 -13 -88 0 -69 -3
-88 -20 -107 -30 -34 -34 -79 -20 -232 7 -76 10 -141 7 -144 -5 -6 -118 92
-242 210 -99 94 -178 136 -259 136 l-56 0 7 43 c5 23 8 116 7 207 -1 141 -4
174 -22 225 -16 43 -20 50 -17 25 3 -19 8 -74 11 -121 6 -79 5 -88 -15 -108
-25 -25 -74 -27 -146 -6 -27 9 -62 13 -77 10 -15 -4 -42 -8 -60 -10 -43 -4
-193 -31 -254 -45 -62 -15 -89 -27 -142 -67 -32 -24 -54 -33 -83 -33 -75 0
-166 112 -200 247 -10 42 -10 74 -1 160 6 59 12 136 11 170 -1 141 89 219 278
243 49 6 144 21 212 32 139 23 232 21 275 -7 47 -31 86 -101 128 -232 58 -183
57 -181 57 -52 1 136 -20 222 -69 284 -16 21 -30 46 -30 55 0 10 -7 23 -15 30
-8 7 -15 25 -15 40 0 46 -97 126 -196 161 -58 21 -230 34 -294 23z m399 -1048
c-17 -16 -254 -65 -318 -66 -72 0 -39 11 71 26 57 7 121 20 143 28 35 13 115
22 104 12z m57 -31 c21 -50 4 -105 -47 -156 -40 -40 -57 -46 -89 -29 -23 12
-117 -5 -141 -26 -52 -46 -189 38 -189 117 0 45 14 51 43 19 37 -39 87 -54
161 -47 86 8 131 23 171 59 37 32 46 55 18 43 -14 -5 -284 -55 -303 -55 -2 0
1 5 7 11 6 6 72 24 147 40 76 16 141 31 147 34 5 4 9 1 9 -4 0 -19 22 -12 27
9 8 30 22 24 39 -15z m-345 -505 c5 0 9 10 9 22 0 19 4 16 36 -18 19 -21 37
-34 40 -29 18 40 24 40 55 3 42 -52 62 -49 100 15 16 28 28 43 26 32 -3 -11
-10 -43 -17 -71 l-11 -52 -61 -12 c-58 -11 -61 -10 -98 15 -46 32 -184 155
-189 169 -2 5 20 -9 49 -32 29 -23 57 -42 61 -42z"/>
<path d="M1662 2618 c-54 -12 -51 -34 4 -31 21 2 69 4 105 5 64 3 66 4 46 21
-22 19 -83 21 -155 5z"/>
<path d="M1290 2558 c-95 -16 -101 -18 -126 -43 -35 -35 -30 -51 7 -21 25 22
41 26 89 26 66 0 114 14 108 32 -6 16 -14 17 -78 6z"/>
<path d="M1724 2490 c-16 -5 -41 -22 -55 -37 l-24 -28 27 23 c52 46 146 38
188 -16 11 -13 20 -20 20 -15 0 14 -61 73 -74 73 -6 0 -20 2 -31 4 -11 3 -34
1 -51 -4z"/>
<path d="M1694 2428 l-19 -23 23 19 c12 11 22 21 22 23 0 8 -8 2 -26 -19z"/>
<path d="M1726 2435 c-3 -9 -3 -21 0 -27 3 -5 -3 -12 -15 -15 -26 -7 -27 -25
-1 -48 41 -37 105 13 76 59 -7 11 -22 26 -33 33 -18 12 -21 12 -27 -2z"/>
<path d="M1770 2446 c0 -2 8 -10 18 -17 15 -13 16 -12 3 4 -13 16 -21 21 -21
13z"/>
<path d="M1265 2413 c-48 -12 -105 -75 -105 -115 0 -7 9 5 20 27 11 23 33 48
49 58 40 24 108 22 151 -4 l35 -21 -19 21 c-10 11 -35 25 -55 31 -38 10 -44
11 -76 3z"/>
<path d="M1280 2340 c0 -10 -7 -23 -16 -28 -21 -12 -10 -49 17 -57 49 -16 90
53 53 89 -22 23 -54 21 -54 -4z"/>
</g>
</svg>
